<?xml version="1.0" standalone="no"?>
<!DOCTYPE svg PUBLIC "-//W3C//DTD SVG 20010904//EN"
 "http://www.w3.org/TR/2001/REC-SVG-20010904/DTD/svg10.dtd">
<svg version="1.0" xmlns="http://www.w3.org/2000/svg"
 width="76.000000pt" height="76.000000pt" viewBox="0 0 76.000000 76.000000"
 preserveAspectRatio="xMidYMid meet">
<metadata>
Created by potrace 1.11, written by Peter Selinger 2001-2013
</metadata>
<g transform="translate(0.000000,76.000000) scale(0.100000,-0.100000)"
fill="#000000" stroke="none">
<path d="M357 743 c-4 -3 -7 -172 -7 -375 l0 -369 28 3 27 3 1 360 c0 198 -2
366 -4 373 -4 13 -34 17 -45 5z"/>
<path d="M249 629 c-11 -7 -14 -57 -14 -275 -1 -276 3 -302 40 -288 13 5 15
49 15 284 0 288 -2 303 -41 279z"/>
<path d="M481 630 c-10 -6 -13 -69 -13 -266 1 -317 -1 -291 17 -298 36 -14 40
12 38 275 -1 140 -2 261 -2 270 -1 20 -23 30 -40 19z"/>
<path d="M127 513 c-4 -3 -7 -78 -7 -165 0 -132 3 -160 15 -164 35 -14 41 11
40 163 0 81 -4 154 -8 161 -9 13 -30 16 -40 5z"/>
<path d="M586 504 c-9 -24 -7 -297 3 -312 5 -8 17 -12 27 -10 17 3 19 16 22
148 1 80 0 155 -3 168 -6 26 -40 30 -49 6z"/>
<path d="M11 436 c-13 -16 -13 -143 1 -168 11 -22 34 -23 42 -2 8 20 8 148 0
168 -8 20 -28 21 -43 2z"/>
<path d="M705 440 c-9 -15 -10 -164 -1 -178 9 -15 33 -16 41 -2 10 15 12 146
3 170 -8 21 -33 27 -43 10z"/>
</g>
</svg>
